# xmcd
#
# Track frame offsets: 
#        150
#        16563
#        38564
#        57485
#        72672
#        92005
#        102959
#        115686
#        129005
#        150051
#        172503
#        190980
#        210675
#        223492
#        239469
#        266322
#
# Disc length: 3692 seconds
#
# Revision: 0
# Processed by: cddbd v1.5.2PL0 Copyright (c) Steve Scherf et al.
# Submitted via: ExactAudioCopy v0.99pb4
#
DISCID=ca0e6a10
DTITLE=Gerard Joling - Het Mooiste Van
DYEAR=2006
DGENRE=Chanson
TTITLE0=Liefde Op Het Eerste Gezicht
TTITLE1=Can't Take My Eyes Off You
TTITLE2=No More Bolero's
TTITLE3=Tu Solo Tu
TTITLE4=Doo Wop Days
TTITLE5=Come Back My Love
TTITLE6=It's Over
TTITLE7=The Drums Are Everywhere (Lady Africa)
TTITLE8=Corazon
TTITLE9=Stay In My Life
TTITLE10=The Rhythm Divine
TTITLE11=Fandango
TTITLE12=Somewhere Over The Rainbow
TTITLE13=Everybody Loves A Winner
TTITLE14=The Last Goodbye
TTITLE15=A Prayer (Christmas In The Fifties)
EXTD=
EXTT0=
EXTT1=
EXTT2=
EXTT3=
EXTT4=
EXTT5=
EXTT6=
EXTT7=
EXTT8=
EXTT9=
EXTT10=
EXTT11=
EXTT12=
EXTT13=
EXTT14=
EXTT15=
PLAYORDER=
